<?xml version="1.0" encoding="utf-8"?>
<!-- Generator: Adobe Illustrator 27.2.0, SVG Export Plug-In . SVG Version: 6.00 Build 0)  -->
<svg version="1.1" id="Layer_1" xmlns="http://www.w3.org/2000/svg" xmlns:xlink="http://www.w3.org/1999/xlink" x="0px" y="0px"
	 viewBox="0 0 200 200" style="enable-background:new 0 0 200 200;" xml:space="preserve">
<style type="text/css">
	.st0{fill:#05336E;}
</style>
<g>
	<path class="st0" d="M73.901,177.144c-1.869-0.623-3.322-0.623-4.153-0.623l-1.038,2.077c0.831-0.415,2.492-1.038,4.361-0.415
		c3.115,1.038,4.361,3.738,3.53,7.268l-0.831-0.208c-2.284-0.623-3.945-1.246-6.23-2.492l-0.831,2.492
		c2.492,0.415,4.361,0.831,6.437,1.454l0.831,0.208c-1.246,3.945-3.945,5.607-7.268,4.568c-2.7-0.831-3.738-3.322-3.738-3.322
		l-0.831,2.907c0,0,1.661,1.038,4.153,1.869c5.191,1.661,9.552-0.415,11.213-5.607C81.377,182.543,79.093,178.598,73.901,177.144
		L73.901,177.144z"/>
	<path class="st0" d="M19.288,136.444c0,1.869-1.454,3.53-3.53,3.53c-1.869,0-3.53-1.454-3.53-3.53s1.454-3.53,3.53-3.53
		C17.627,132.914,19.288,134.575,19.288,136.444L19.288,136.444z"/>
	<path class="st0" d="M184.374,136.029c0,1.869-1.454,3.53-3.53,3.53c-1.869,0-3.53-1.454-3.53-3.53c0-1.869,1.454-3.53,3.53-3.53
		C182.92,132.498,184.374,134.16,184.374,136.029L184.374,136.029z"/>
	<path class="st0" d="M111.695,106.334c0.208,1.869,0.208,3.738,0.208,8.722c0,5.399,0,7.683-0.208,9.344h3.945
		c-0.208-1.869-0.208-3.945-0.208-9.344c0-4.984,0-7.06,0.208-8.722H111.695L111.695,106.334z"/>
	<path class="st0" d="M119.17,119.624c0,3.322,2.492,5.191,6.645,5.191c4.361,0,6.853-1.869,6.853-5.399
		c0-2.284-1.246-3.738-3.53-4.568c1.869-0.623,2.907-2.077,2.907-4.153c0-3.115-2.284-4.776-6.022-4.776
		c-3.945,0-6.23,1.869-6.23,4.984c0,2.077,1.038,3.322,2.907,4.153C120.416,115.678,119.17,117.34,119.17,119.624L119.17,119.624z
		 M125.815,107.58c1.661,0,2.7,1.246,2.7,3.322s-1.038,3.322-2.492,3.322c-1.661,0-2.7-1.246-2.7-3.322
		S124.154,107.58,125.815,107.58L125.815,107.58z M125.815,115.886c1.869,0,3.115,1.454,3.115,3.738c0,2.284-1.038,3.53-2.907,3.53
		s-3.115-1.454-3.115-3.738C122.908,117.34,123.946,115.886,125.815,115.886L125.815,115.886z"/>
	<path class="st0" d="M134.952,119.624c0,3.322,2.492,5.191,6.645,5.191c4.361,0,6.853-1.869,6.853-5.399
		c0-2.284-1.246-3.738-3.53-4.568c1.869-0.623,2.907-2.077,2.907-4.153c0-3.115-2.284-4.776-6.022-4.776
		c-3.945,0-6.23,1.869-6.23,4.984c0,2.077,1.038,3.322,2.907,4.153C136.198,115.678,134.952,117.34,134.952,119.624L134.952,119.624
		z M141.597,107.58c1.661,0,2.7,1.246,2.7,3.322s-1.038,3.322-2.492,3.322c-1.661,0-2.7-1.246-2.7-3.322
		S140.143,107.58,141.597,107.58L141.597,107.58z M141.597,115.886c1.869,0,3.115,1.454,3.115,3.738c0,2.284-1.038,3.53-2.907,3.53
		s-2.907-1.454-2.907-3.738C138.69,117.34,139.936,115.886,141.597,115.886L141.597,115.886z"/>
	<path class="st0" d="M158.832,112.771c-2.077,0-3.322,0.831-4.153,1.869c0.208-4.153,1.246-6.853,4.153-6.853
		c2.284,0,3.53,2.284,3.53,2.284v-3.322c0,0-1.246-0.623-3.738-0.623c-4.568,0-7.683,3.53-7.683,9.76
		c0,6.23,2.492,9.137,6.853,9.137c3.945,0,6.437-2.492,6.437-6.437C164.024,114.848,162.155,112.771,158.832,112.771
		L158.832,112.771z M158.002,122.946c-1.869,0-3.115-1.454-3.115-6.437c0.623-0.831,1.661-1.661,2.907-1.661
		c1.869,0,2.907,1.246,2.907,3.738C160.494,121.493,159.663,122.946,158.002,122.946L158.002,122.946z"/>
	<path class="st0" d="M146.165,53.589c-25.542-25.749-66.865-25.749-92.199,0C41.507,66.049,35.278,82.246,34.862,98.651l0,0v0.208
		c0,0.623,0,1.454,0,2.077c0-0.208,0-0.623,0-0.831c0,5.607,0.623,11.213,2.077,17.028c9.137,35.301,44.646,56.482,79.532,47.345
		c16.405-4.361,29.695-14.536,38.209-28.033h-0.208c-7.891,11.421-19.52,20.143-33.848,23.88
		c-31.771,8.306-64.373-11.006-72.679-43.192c-1.661-6.23-2.077-12.252-1.869-18.274h2.7c-0.208,4.984,0.415,9.967,1.661,14.951
		c7.476,28.864,36.547,46.099,65.204,38.624c10.383-2.7,19.312-8.514,25.957-15.989l0,0c-8.514,8.099-20.143,13.29-32.81,13.29
		c-13.705,0-25.957-5.814-34.678-15.159c-0.208-0.208-0.208-0.208-0.415-0.415c-0.208-0.208-0.208-0.415-0.415-0.415
		c-4.984-5.607-8.722-12.252-10.59-20.143c-1.246-4.984-1.661-9.76-1.454-14.744h3.115c-0.208,4.153,0.208,8.306,1.246,12.459
		c5.607,22.219,28.033,35.509,50.045,29.695c3.738-1.038,7.268-2.492,10.59-4.568H125.4c-4.361,1.869-9.137,2.907-14.121,2.907
		c-19.727,0-35.509-15.989-35.509-35.924c0-1.661,0.208-3.115,0.415-4.776h9.344h38.416l0,0h12.459l0,0h17.651h11.421l0,0
		C164.854,82.453,158.417,66.256,146.165,53.589L146.165,53.589z M55.42,96.989c1.246-6.645,4.361-13.082,9.344-18.066
		c13.498-13.705,35.509-13.705,49.007,0c3.53,3.53,6.022,7.683,7.683,12.044L55.42,96.989L55.42,96.989z M124.362,73.524
		c-15.989-16.197-41.946-16.197-57.936,0c-6.645,6.645-10.383,14.951-11.421,23.673l-10.59,0.831
		c1.246-10.175,5.814-20.143,13.498-28.033c18.689-18.897,49.007-18.897,67.696,0c5.607,5.607,9.344,12.459,11.629,19.52
		l-3.115,0.208C132.253,83.699,129.138,78.093,124.362,73.524L124.362,73.524z M149.903,88.268
		c-2.284-9.137-6.853-17.651-13.913-24.711c-20.973-21.181-55.029-21.181-76.002,0c-9.552,9.552-14.536,21.804-15.574,34.471
		l-6.23,0.623l-3.322,0.208C35.693,84.53,41.3,70.409,52.098,59.611c23.257-23.465,61.051-23.465,84.308,0
		c8.099,8.099,13.29,18.066,15.782,28.656H149.903L149.903,88.268z"/>
	<path class="st0" d="M23.234,147.034c4.361-3.322,8.929-2.284,12.044,2.077c1.454,2.077,2.284,3.945,2.284,3.945l-2.492,1.869
		c0,0,0.831-2.492-0.831-4.776c-2.077-2.7-5.399-2.907-8.929-0.208c-3.322,2.492-4.153,5.607-2.077,8.514
		c1.869,2.492,3.945,2.7,3.945,2.7l-1.454,1.454c0,0-2.077-0.831-4.153-3.945C18.665,154.51,19.08,149.941,23.234,147.034
		L23.234,147.034z"/>
	<path class="st0" d="M42.753,168.838c-3.322,3.53-4.568,4.776-5.607,6.022l-2.492-2.492c1.246-1.038,2.7-2.284,6.022-5.814
		l4.361-4.361l-4.984-4.984l-4.361,4.361c-3.322,3.53-4.568,4.776-5.607,6.022l-2.492-2.492c1.246-1.038,2.7-2.284,6.022-5.814
		c3.115-3.115,4.153-4.361,5.191-5.607l9.76,9.76C47.114,164.477,45.868,165.723,42.753,168.838L42.753,168.838z"/>
	<path class="st0" d="M52.928,180.259c-1.869,2.7-5.191,2.907-8.099,0.831c-2.907-2.077-3.945-5.191-0.415-9.967
		c3.322-4.776,6.23-5.191,10.59-2.7l1.869,1.038c1.038,0.623,1.869,0.623,1.869,0.623l-1.869,2.7l-3.53-2.284
		c-3.115-2.077-4.984-1.869-7.268,1.038c1.661-0.831,3.738-0.623,5.607,0.831C54.174,174.445,54.797,177.56,52.928,180.259
		L52.928,180.259z M50.229,178.183c1.454-2.077,1.454-3.945,0.208-4.984c-1.246-1.038-3.322-0.415-4.568,1.661
		c-1.454,2.077-1.454,3.945-0.208,4.984C46.906,180.882,48.775,180.259,50.229,178.183L50.229,178.183z"/>
	<path class="st0" d="M68.295,178.183c-1.661-1.869-3.115-2.492-5.191-3.53l-0.415-0.208l-2.7,5.607
		c-2.077,4.361-2.907,6.022-3.322,7.683l-3.115-1.661c0.831-1.246,1.661-3.115,3.945-7.268c1.869-3.945,2.7-5.607,3.115-7.06
		l8.929,4.361L68.295,178.183L68.295,178.183z"/>
	<path class="st0" d="M93.629,181.09l-0.208,2.284c-1.661-1.038-2.907-1.246-4.153-1.454h-0.415l-0.831,6.23
		c-0.623,4.776-0.831,6.645-0.831,8.306l-3.53-0.415c0.415-1.454,0.623-3.53,1.246-8.306l0.831-6.23h-0.415
		c-1.454-0.208-2.7-0.208-4.568,0.415l0.208-2.284L93.629,181.09L93.629,181.09z"/>
	<path class="st0" d="M109.203,181.09c-1.454,2.284-2.077,4.776-3.738,8.929c-2.077,4.984-3.322,7.476-6.645,7.476
		c-1.246,0-1.869-0.415-1.869-0.415v-2.7c0,0,1.038,1.038,2.284,1.038c1.038,0,1.869-0.623,2.492-1.454l-5.814-9.344
		c-0.623-1.246-1.038-1.661-2.284-3.322h4.153c0.415,1.661,0.623,2.284,2.077,4.568l3.322,5.191
		c0.208-0.415,0.415-1.038,0.623-1.454c1.661-4.568,2.077-6.022,2.077-8.514L109.203,181.09L109.203,181.09z"/>
	<path class="st0" d="M114.394,184.205l1.246-0.208l-1.246,4.776l3.115,3.738l-1.246,0.208l-3.945-3.53L114.394,184.205
		L114.394,184.205z M117.924,183.374l1.246-0.208l-1.246,4.776l3.115,3.738l-1.246,0.208l-3.945-3.53L117.924,183.374
		L117.924,183.374z"/>
	<path class="st0" d="M138.067,188.981l-3.738,1.454c-0.623-1.661-1.038-2.284-3.115-4.568l-5.399-6.022l-0.208,7.891
		c0,2.907,0,3.945,0.415,5.607l-2.7,1.038c0.208-1.869,0.208-2.492,0.415-6.022l0.623-11.421l1.454-0.623l0,0l0,0l0.831-0.208
		l8.099,9.344C136.198,187.112,136.821,187.527,138.067,188.981L138.067,188.981z"/>
	<path class="st0" d="M147.411,174.029c2.7,4.568,1.246,9.344-3.322,12.044c-2.284,1.454-4.153,1.869-4.153,1.869l-1.454-2.492
		c0,0,2.492,1.038,4.984-0.415c2.907-1.869,3.53-4.984,1.454-8.722l-0.831,0.415c-2.077,1.246-3.53,2.284-5.399,3.945l-1.246-2.077
		c2.492-1.038,3.945-1.661,6.022-2.907l0.623-0.415c-2.077-2.907-4.984-3.945-7.683-2.077c-2.492,1.454-2.7,3.945-2.7,3.945
		l-1.454-1.869c0,0,0.831-1.869,3.738-3.53C140.559,168.838,144.92,169.669,147.411,174.029L147.411,174.029z"/>
	<path class="st0" d="M153.433,159.286l1.454,1.869c-1.869,0.623-2.907,1.246-3.945,2.077l-0.415,0.415l3.945,4.776
		c3.115,3.738,4.361,5.191,5.399,6.23l-2.7,2.284c-0.831-1.454-2.077-2.907-4.984-6.645l-3.945-4.776l-0.415,0.208
		c-1.038,1.038-1.869,1.869-2.907,3.53l-1.454-1.869L153.433,159.286L153.433,159.286z"/>
	<path class="st0" d="M169.423,152.641c3.53,3.115,4.984,4.361,6.437,5.191l-2.284,2.7c-1.038-1.246-2.492-2.492-6.022-5.607
		l-3.53-3.115l4.776,14.328l-2.284,2.492c-1.038-1.246-2.284-2.284-5.607-5.191c-3.53-3.115-4.984-4.361-6.437-5.191l2.284-2.7
		c1.038,1.246,2.492,2.492,6.022,5.607l3.53,3.115l-4.776-14.328l2.284-2.492C164.854,148.695,166.1,149.734,169.423,152.641
		L169.423,152.641z"/>
	<path class="st0" d="M176.275,152.849l-0.623,1.038l-2.492-4.361l-4.776-0.415l0.623-1.038l5.191-0.208L176.275,152.849
		L176.275,152.849z M178.144,149.734l-0.623,1.038l-2.492-4.361l-4.776-0.415l0.623-1.038l5.191-0.208L178.144,149.734
		L178.144,149.734z"/>
	<path class="st0" d="M10.359,112.148c4.153-0.831,6.022-1.246,7.476-1.661l0.415,3.115c-1.454,0-3.115,0.415-7.268,1.246
		l-5.399,1.038l1.246,6.437l5.399-1.038c4.153-0.831,5.814-1.246,7.268-1.661l0.831,3.115c-1.454,0-3.322,0.415-7.476,1.246
		c-3.945,0.831-5.399,1.038-6.645,1.661l-2.492-12.252C4.96,113.186,6.621,112.979,10.359,112.148L10.359,112.148z"/>
	<path class="st0" d="M14.927,98.443h2.492c0,0,0,3.322,0,4.776c0,1.454,0.208,4.568,0.208,4.568c-1.454-0.208-3.115-0.208-7.476,0
		c-3.945,0.208-5.607,0.208-6.853,0.415l-0.415-8.929H4.96c-0.623,2.077-0.623,3.53-0.623,5.607v0.415l4.776-0.208
		c0-1.869-0.208-2.907-0.623-4.568h2.284c-0.415,1.869-0.415,2.907-0.415,4.568l5.607-0.208v-0.831
		C15.966,101.973,15.758,100.312,14.927,98.443L14.927,98.443z"/>
	<path class="st0" d="M7.452,85.984c2.907,0.208,4.361,2.284,4.153,6.437v1.038c2.7,0.208,4.361,0.208,5.814,0l-0.208,3.322
		c-1.454-0.208-3.115-0.415-7.476-0.623c-3.945-0.208-5.399-0.208-6.853-0.208l0.208-4.984C3.299,87.645,4.752,85.984,7.452,85.984
		L7.452,85.984z M7.452,89.098c-1.869-0.208-2.907,0.831-3.115,2.7v1.246l6.022,0.415v-0.831
		C10.567,90.344,9.528,89.098,7.452,89.098L7.452,89.098z"/>
	<path class="st0" d="M16.381,75.393c2.7,0.623,3.738,2.907,2.907,6.853l-0.415,1.661l-0.415,2.907
		c-1.454-0.415-3.115-0.831-7.268-1.661c-3.945-0.831-5.399-1.038-6.853-1.246l1.038-5.191c0.623-3.322,2.077-4.776,4.153-4.361
		c1.661,0.415,2.907,1.661,2.7,3.945C13.058,75.808,14.512,75.186,16.381,75.393L16.381,75.393z M6.206,81.415l4.776,1.038
		l0.208-1.038c0.415-2.077-0.208-3.115-2.077-3.53c-1.454-0.208-2.492,0.415-2.7,2.284L6.206,81.415L6.206,81.415z M15.966,78.508
		c-1.869-0.415-3.115,0.831-3.53,3.115l-0.208,1.038l5.399,1.038l0.208-1.038C18.25,80.377,17.627,78.716,15.966,78.508
		L15.966,78.508z"/>
	<path class="st0" d="M19.496,59.196c-3.53-1.661-4.984-2.492-6.23-3.115l-1.454,2.907c1.246,0.415,2.7,1.038,6.437,2.7
		c3.945,1.869,5.399,2.7,6.645,3.322l1.454-2.907C25.102,61.688,23.441,61.065,19.496,59.196L19.496,59.196z"/>
	<path class="st0" d="M20.119,64.387c-2.492-1.038-4.361,0.208-5.607,3.322l-0.623,1.661c-2.492-1.038-3.945-1.661-5.191-2.284
		l-1.246,2.907c1.454,0.415,2.907,1.038,7.06,2.7c3.738,1.454,5.191,2.077,6.23,2.907l1.038-2.907l0.208-0.831
		C23.649,68.125,22.818,65.426,20.119,64.387L20.119,64.387z M20.949,71.448l-0.415,0.623l-5.607-2.284l0.415-1.038
		c0.831-1.869,2.077-2.284,3.738-1.661C21.157,67.918,21.78,69.371,20.949,71.448L20.949,71.448z"/>
	<path class="st0" d="M28.217,45.283c3.53,2.492,5.191,3.53,6.437,4.153l-1.869,2.492c-1.038-1.038-2.492-1.869-6.022-4.361
		l-3.53-2.284l5.814,12.252l-1.454,2.7c-1.038-1.038-2.492-2.077-5.814-4.153c-3.53-2.492-4.984-3.322-6.23-3.945l1.869-2.7
		c1.038,1.038,2.492,1.869,6.022,4.361l3.53,2.284L21.157,43.83l1.661-2.492C23.649,42.168,25.102,42.999,28.217,45.283
		L28.217,45.283z M13.681,47.775l1.454-2.077c0,0,1.661,1.246,2.7-0.208c1.038-1.454-0.831-2.492-0.831-2.492l1.454-2.077
		c0,0,2.284,2.284,0.415,5.191C16.589,49.021,13.681,47.775,13.681,47.775L13.681,47.775z"/>
	<path class="st0" d="M44.207,28.671c3.322,3.53,2.7,7.891-0.831,11.213c-1.869,1.661-3.322,2.492-3.322,2.492l-1.869-2.077
		c0,0,2.492,0.415,4.361-1.246c2.284-2.077,2.284-5.191-0.208-7.891l-0.623,0.623c-1.661,1.454-2.7,2.7-4.153,4.361l-1.454-1.661
		c1.869-1.246,3.115-2.284,4.776-3.738l0.623-0.415c-2.492-2.284-4.984-2.492-7.268-0.415c-1.869,1.661-1.869,4.153-1.869,4.153
		l-1.454-1.454c0,0,0.415-1.869,2.7-3.738C37.146,25.348,41.3,25.348,44.207,28.671L44.207,28.671z"/>
	<path class="st0" d="M60.404,27.425l-3.322,1.869c-0.831-1.246-1.246-1.661-3.738-3.322l-6.022-4.153l1.661,7.06
		c0.623,2.492,0.831,3.322,1.454,4.776l-2.077,1.454c-0.208-1.661-0.415-2.284-1.038-5.191l-2.077-10.175l1.246-0.831l0,0l0,0
		l0.623-0.415l9.137,6.437C58.12,26.179,58.95,26.594,60.404,27.425L60.404,27.425z"/>
	<path class="st0" d="M68.502,21.195l1.038,2.077c0,0-3.53,1.454-4.361,1.869c-0.831,0.415-4.153,1.869-4.153,1.869
		c-0.415-1.454-1.038-2.907-2.907-6.853c-1.661-3.738-2.284-4.984-3.115-6.23l8.099-3.738l0.831,1.869
		c-2.284,0.208-3.53,0.623-5.399,1.454l-0.208,0.415l2.077,4.568c1.661-0.831,2.492-1.246,3.945-2.284l0.831,2.077
		c-1.661,0.415-2.7,0.831-4.361,1.454l2.284,5.191l0.623-0.208C65.803,23.479,67.256,22.649,68.502,21.195L68.502,21.195z"/>
	<path class="st0" d="M69.125,8.113c0.208,1.454,0.623,2.907,1.869,6.645c1.246,4.153,1.661,5.814,2.284,7.06l-3.115,1.038
		c-0.208-1.454-0.623-3.115-1.869-7.268c-1.246-3.738-1.661-5.399-2.284-6.645L69.125,8.113L69.125,8.113z M82.831,19.534
		l-4.361,1.038l-7.268-5.814l1.869-3.738c1.038-2.077,1.454-3.115,1.661-4.568l2.907-0.831c0,0-1.246,1.869-2.284,3.945l-1.869,3.53
		l3.115,2.492C79.093,17.25,80.546,18.496,82.831,19.534L82.831,19.534z"/>
	<path class="st0" d="M89.268,3.752l0.415,2.077c-1.661-0.415-2.907-0.415-3.945-0.208h-0.415l0.831,5.607
		c0.623,4.361,1.038,6.022,1.454,7.476l-3.115,0.623c0-1.454-0.208-3.115-1.038-7.476l-0.831-5.607h-0.415
		c-1.246,0.208-2.284,0.623-3.738,1.454l-0.415-2.077L89.268,3.752L89.268,3.752z"/>
	<path class="st0" d="M101.935,7.282c0,3.115-1.869,4.776-6.022,4.776h-1.038c0,2.907,0.208,4.361,0.415,5.814l-3.115,0.208
		c0.208-1.454,0.208-3.322,0-7.683c-0.208-3.945-0.208-5.607-0.415-7.06l4.984-0.208C100.066,3.337,101.935,4.583,101.935,7.282
		L101.935,7.282z M99.028,7.49c0-1.869-1.038-2.907-3.115-2.907h-1.246l0.208,6.022h0.831C98.197,10.812,99.235,9.566,99.028,7.49
		L99.028,7.49z"/>
	<path class="st0" d="M102.766,10.397c0.623-4.776,3.945-7.268,8.722-6.645c4.361,0.623,6.853,3.738,6.23,8.306
		c-0.623,4.776-3.945,7.268-8.722,6.645C104.427,18.08,102.143,14.965,102.766,10.397L102.766,10.397z M114.394,12.058
		c0.415-3.945-0.831-6.437-3.53-6.853c-2.7-0.415-4.568,1.661-4.984,5.399c-0.415,3.945,0.831,6.437,3.53,6.853
		C111.902,17.873,113.979,15.796,114.394,12.058L114.394,12.058z"/>
	<path class="st0" d="M129.761,8.528l-0.623,2.077c-1.454-1.038-2.492-1.454-3.53-1.869l-0.415-0.208l-1.454,5.399
		c-1.246,4.153-1.661,5.814-1.869,7.268l-3.115-0.831c0.623-1.246,1.038-2.907,2.284-7.268l1.454-5.399l-0.415-0.208
		c-1.246-0.415-2.284-0.415-4.153-0.208l0.623-2.077L129.761,8.528L129.761,8.528z"/>
	<path class="st0" d="M135.16,23.895l-0.831,2.284c0,0-3.115-1.454-4.153-1.869c-0.831-0.415-4.568-1.869-4.568-1.869
		c0.623-1.246,1.454-2.907,3.115-6.853c1.454-3.738,2.077-5.191,2.492-6.437l8.099,3.53l-0.831,2.077
		c-1.661-1.454-2.907-2.077-4.776-2.907l-0.415-0.208l-1.661,4.361c1.661,0.623,2.7,1.038,4.361,1.454l-0.831,2.077
		c-1.454-1.038-2.492-1.454-3.945-2.284l-2.077,5.191l0.623,0.208C131.63,23.687,133.291,24.102,135.16,23.895L135.16,23.895z"/>
	<path class="st0" d="M144.712,32.201l-3.322-2.077c0.415-1.454,0.208-2.077,0.208-4.568v-2.077l-1.661,0.831
		c-2.077,1.038-2.7,1.661-3.738,2.7l-2.7-1.454c0,0,1.661-0.623,3.53-1.454l4.568-2.077l-0.208-5.191
		c0-2.077-0.415-3.738-0.415-3.738l3.322,1.869c-0.415,1.454-0.415,2.284-0.208,4.568v1.661l1.246-0.623
		c2.077-1.038,2.907-1.661,3.945-2.7l2.284,1.454c0,0-1.454,0.623-3.53,1.454l-4.153,1.869l0.208,5.607
		C144.297,30.747,144.712,32.201,144.712,32.201L144.712,32.201z"/>
	<path class="st0" d="M159.04,34.277c-2.7,3.322-3.945,4.776-4.568,6.022l-2.284-2.077c1.038-1.038,2.077-2.077,4.361-5.191
		l-5.191-4.153c-2.492,3.115-3.322,4.361-3.945,5.399l-2.492-1.869c1.038-1.038,2.077-2.284,4.776-5.814
		c2.492-3.115,3.322-4.361,4.153-5.607l2.492,2.077c-0.831,0.831-1.869,2.077-3.945,4.568l5.191,4.153
		c2.077-2.7,2.907-3.738,3.738-4.984l2.492,2.077C162.57,29.917,161.532,31.163,159.04,34.277L159.04,34.277z"/>
	<path class="st0" d="M170.253,46.529c-3.322,2.907-4.776,4.153-5.607,5.191l-1.869-2.492c1.246-0.831,2.492-1.869,5.814-4.776
		l3.115-2.7l-13.29,2.492l-2.077-2.284c1.246-0.831,2.492-1.869,5.607-4.361c3.322-2.907,4.568-3.945,5.399-4.984l2.077,2.492
		c-1.246,0.831-2.492,1.869-5.814,4.776l-3.115,2.7l13.29-2.492l1.869,2.284C174.407,42.999,173.161,44.037,170.253,46.529
		L170.253,46.529z"/>
	<path class="st0" d="M177.106,57.535c-3.738,2.284-5.191,3.115-6.437,4.153l-1.454-2.907c1.246-0.623,2.492-1.246,5.399-3.115
		c-0.623-0.415-1.869-1.454-2.907-2.907c-1.454-2.492-0.831-4.153,1.246-5.399c1.869-1.038,3.115-1.869,4.153-2.907l1.661,2.7
		c-1.454,0.623-2.907,1.454-4.153,2.284c-1.454,0.831-1.869,1.869-1.038,3.322c0.623,1.038,1.454,1.869,2.077,2.284
		c3.322-2.077,4.568-2.907,5.607-3.738l1.661,2.7C181.674,54.628,180.429,55.458,177.106,57.535L177.106,57.535z"/>
	<path class="st0" d="M177.521,71.448l-2.077,1.038c0,0-1.454-3.53-1.869-4.568c-0.415-1.038-1.869-4.153-1.869-4.153
		c1.454-0.415,2.907-1.038,6.853-2.907c3.53-1.661,4.984-2.284,6.23-3.115l3.53,8.306l-1.869,0.831
		c-0.208-2.284-0.623-3.53-1.454-5.399l-0.208-0.415l-4.361,2.077c0.831,1.661,1.246,2.492,2.284,3.945l-2.077,0.831
		c-0.415-1.869-0.623-2.7-1.454-4.361l-4.984,2.284l0.208,0.623C175.237,68.541,176.068,70.202,177.521,71.448L177.521,71.448z"/>
	<path class="st0" d="M182.297,69.786c4.776-1.246,8.306,1.454,9.344,6.022c0.623,2.284,0.415,3.945,0.415,3.945l-2.7,0.623
		c0,0,1.454-1.869,0.831-4.361c-0.831-3.115-3.53-4.361-7.268-3.322c-3.53,0.831-5.399,3.322-4.568,6.437
		c0.623,2.7,2.284,3.53,2.284,3.53l-1.661,0.623c0,0-1.454-1.454-2.077-4.776C175.86,74.563,177.729,70.825,182.297,69.786
		L182.297,69.786z"/>
	<path class="st0" d="M193.303,85.361c-1.454,0-2.907,0.208-6.853,0.623c-4.361,0.415-6.022,0.831-7.268,1.038l-0.623-3.322
		c1.454,0,3.322-0.208,7.683-0.623c3.945-0.415,5.399-0.623,6.853-1.038L193.303,85.361L193.303,85.361z M180.013,96.782
		l-0.208-4.361l6.853-6.23l3.115,2.492c1.869,1.454,2.7,2.077,4.153,2.492l0.415,3.115c0,0-1.661-1.661-3.53-2.907l-3.115-2.7
		l-2.907,2.7C182.505,93.667,181.259,94.913,180.013,96.782L180.013,96.782z"/>
	<path class="st0" d="M187.281,109.033c-4.361-0.208-6.23-0.208-7.476,0l0.208-3.322c1.454,0.208,3.115,0.415,7.476,0.415
		l4.153,0.208l-11.421-7.268v-3.115c1.454,0.208,3.115,0.415,7.06,0.415c4.361,0.208,6.022,0.208,7.476,0v3.322
		c-1.454-0.208-3.115-0.415-7.476-0.415l-4.153-0.208l11.421,7.268v3.115C192.68,109.241,191.227,109.241,187.281,109.033
		L187.281,109.033z"/>
	<path class="st0" d="M184.582,123.984c-4.153-0.831-6.022-1.246-7.476-1.246l0.831-3.115c1.454,0.415,3.115,0.831,7.268,1.661
		l4.153,0.831l-10.175-8.929l0.415-3.115c1.246,0.415,2.907,0.831,6.853,1.454c4.153,0.831,6.022,1.038,7.268,1.246l-0.623,3.115
		c-1.454-0.415-3.115-0.831-7.268-1.661l-4.153-0.831l10.175,8.929l-0.623,2.907C189.981,125.023,188.527,124.607,184.582,123.984
		L184.582,123.984z M197.041,115.678l-0.415,2.492c0,0-2.077-0.415-2.284,1.246c-0.415,1.661,1.869,2.077,1.869,2.077l-0.415,2.492
		c0,0-3.115-1.038-2.492-4.776C193.718,115.678,197.041,115.678,197.041,115.678L197.041,115.678z"/>
</g>
</svg>
